<svg xmlns="http://www.w3.org/2000/svg" viewBox="0 0 400 400" fill="none">
  <!-- Hoppy - joy expression (BOTH ears perk up) -->
  <!-- Sparkles -->
  <path d="M75 95 L77 103 L85 105 L77 107 L75 115 L73 107 L65 105 L73 103 Z" fill="#FAC775" stroke="#BA7517" stroke-width="1"/>
  <path d="M325 90 L327 98 L335 100 L327 102 L325 110 L323 102 L315 100 L323 98 Z" fill="#FAC775" stroke="#BA7517" stroke-width="1"/>
  <path d="M345 200 L347 207 L354 209 L347 211 L345 218 L343 211 L336 209 L343 207 Z" fill="#FAC775" stroke="#BA7517" stroke-width="1"/>
  <!-- Tail -->
  <circle cx="305" cy="280" r="13" fill="#FFFFFF" stroke="#712B13" stroke-width="2"/>
  <circle cx="295" cy="290" r="9" fill="#FFFFFF" stroke="#712B13" stroke-width="1.8"/>
  <circle cx="313" cy="290" r="9" fill="#FFFFFF" stroke="#712B13" stroke-width="1.8"/>
  <!-- Hind feet -->
  <ellipse cx="155" cy="345" rx="28" ry="14" fill="#F0997B" stroke="#712B13" stroke-width="2.5"/>
  <ellipse cx="245" cy="345" rx="28" ry="14" fill="#F0997B" stroke="#712B13" stroke-width="2.5"/>
  <!-- Body -->
  <ellipse cx="200" cy="280" rx="85" ry="80" fill="#F0997B" stroke="#712B13" stroke-width="2.5"/>
  <path d="M200 240 Q170 230 165 260 Q165 285 200 305 Q235 285 235 260 Q230 230 200 240 Z" fill="#FFFFFF" stroke="#F5C4B3" stroke-width="2" stroke-linejoin="round"/>
  <!-- Paws raised in joy -->
  <ellipse cx="125" cy="260" rx="20" ry="18" fill="#F0997B" stroke="#712B13" stroke-width="2.5" transform="rotate(-25 125 260)"/>
  <ellipse cx="275" cy="260" rx="20" ry="18" fill="#F0997B" stroke="#712B13" stroke-width="2.5" transform="rotate(25 275 260)"/>
  <!-- BOTH ears upright -->
  <ellipse cx="155" cy="80" rx="16" ry="55" fill="#F0997B" stroke="#712B13" stroke-width="2.5"/>
  <ellipse cx="155" cy="85" rx="9" ry="42" fill="#F5C4B3"/>
  <ellipse cx="245" cy="80" rx="16" ry="55" fill="#F0997B" stroke="#712B13" stroke-width="2.5"/>
  <ellipse cx="245" cy="85" rx="9" ry="42" fill="#F5C4B3"/>
  <!-- Head -->
  <ellipse cx="200" cy="160" rx="92" ry="85" fill="#F0997B" stroke="#712B13" stroke-width="2.5"/>
  <!-- Fluffy cheeks -->
  <circle cx="120" cy="190" r="14" fill="#FAECE7" stroke="#712B13" stroke-width="2"/>
  <circle cx="280" cy="190" r="14" fill="#FAECE7" stroke="#712B13" stroke-width="2"/>
  <!-- Flower (kept on left ear) -->
  <ellipse cx="135" cy="42" rx="8" ry="10" fill="#ED93B1" stroke="#A32D2D" stroke-width="1" stroke-linejoin="round"/>
  <ellipse cx="125" cy="50" rx="9" ry="7" fill="#F5C4B3" stroke="#A32D2D" stroke-width="1" stroke-linejoin="round"/>
  <ellipse cx="145" cy="50" rx="9" ry="7" fill="#F5C4B3" stroke="#A32D2D" stroke-width="1" stroke-linejoin="round"/>
  <ellipse cx="130" cy="62" rx="8" ry="7" fill="#ED93B1" stroke="#A32D2D" stroke-width="1" stroke-linejoin="round"/>
  <ellipse cx="140" cy="62" rx="8" ry="7" fill="#ED93B1" stroke="#A32D2D" stroke-width="1" stroke-linejoin="round"/>
  <circle cx="135" cy="55" r="5" fill="#EF9F27" stroke="#BA7517" stroke-width="1"/>
  <circle cx="135" cy="55" r="2" fill="#FAC775"/>
  <!-- Eyes sparkle bigger -->
  <ellipse cx="170" cy="160" rx="12" ry="16" fill="#FFFFFF" stroke="#712B13" stroke-width="2"/>
  <ellipse cx="230" cy="160" rx="12" ry="16" fill="#FFFFFF" stroke="#712B13" stroke-width="2"/>
  <ellipse cx="170" cy="160" rx="7" ry="10" fill="#712B13"/>
  <ellipse cx="230" cy="160" rx="7" ry="10" fill="#712B13"/>
  <circle cx="166" cy="156" r="4" fill="#FFFFFF"/>
  <circle cx="226" cy="156" r="4" fill="#FFFFFF"/>
  <circle cx="173" cy="164" r="2" fill="#FFFFFF" opacity="0.7"/>
  <circle cx="233" cy="164" r="2" fill="#FFFFFF" opacity="0.7"/>
  <!-- Extra highlight dots -->
  <circle cx="175" cy="153" r="1.3" fill="#FFFFFF"/>
  <circle cx="235" cy="153" r="1.3" fill="#FFFFFF"/>
  <circle cx="158" cy="158" r="1" fill="#FFFFFF"/>
  <circle cx="218" cy="158" r="1" fill="#FFFFFF"/>
  <!-- Warm blush -->
  <ellipse cx="135" cy="200" rx="15" ry="10" fill="#ED93B1" opacity="0.55"/>
  <ellipse cx="265" cy="200" rx="15" ry="10" fill="#ED93B1" opacity="0.55"/>
  <!-- Nose -->
  <path d="M195 188 Q200 184 205 188 Q205 196 200 199 Q195 196 195 188 Z" fill="#D85A30" stroke="#712B13" stroke-width="1.5" stroke-linejoin="round"/>
  <ellipse cx="198" cy="190" rx="2" ry="1.5" fill="#F0997B" opacity="0.6"/>
  <!-- Wider "3" mouth -->
  <path d="M200 205 Q186 215 192 222 Q200 217 200 222 Q200 217 208 222 Q214 215 200 205" stroke="#712B13" stroke-width="2.2" fill="none" stroke-linecap="round"/>
  <!-- Bigger smile line -->
  <path d="M183 230 Q200 238 217 230" stroke="#712B13" stroke-width="1.8" fill="none" stroke-linecap="round" opacity="0.7"/>
</svg>
